<svg xmlns="http://www.w3.org/2000/svg" viewBox="0 0 1168 784" role="img" aria-labelledby="title desc">
  <title id="title">Kubrick</title>
  <desc id="desc">Abstract cinematic hero artwork with fractured glass, cyan and amber light beams, and a bold Kubrick wordmark.</desc>
  <defs>
    <linearGradient id="bg" x1="0" y1="0" x2="1" y2="1">
      <stop offset="0" stop-color="#02070b"/>
      <stop offset="0.55" stop-color="#05080b"/>
      <stop offset="1" stop-color="#120906"/>
    </linearGradient>
    <linearGradient id="cyanBeam" x1="0" y1="0.5" x2="1" y2="0.5">
      <stop offset="0" stop-color="#08d9ff" stop-opacity="0"/>
      <stop offset="0.35" stop-color="#36e4ff" stop-opacity="0.95"/>
      <stop offset="1" stop-color="#b9fbff" stop-opacity="0"/>
    </linearGradient>
    <linearGradient id="amberBeam" x1="0" y1="0.5" x2="1" y2="0.5">
      <stop offset="0" stop-color="#fff2bd" stop-opacity="0"/>
      <stop offset="0.4" stop-color="#ff9a18" stop-opacity="0.98"/>
      <stop offset="1" stop-color="#ff4d00" stop-opacity="0"/>
    </linearGradient>
    <filter id="glow" x="-50%" y="-50%" width="200%" height="200%">
      <feGaussianBlur stdDeviation="10" result="b"/>
      <feMerge><feMergeNode in="b"/><feMergeNode in="SourceGraphic"/></feMerge>
    </filter>
    <filter id="softGlow" x="-40%" y="-40%" width="180%" height="180%">
      <feGaussianBlur stdDeviation="4" result="b"/>
      <feMerge><feMergeNode in="b"/><feMergeNode in="SourceGraphic"/></feMerge>
    </filter>
    <pattern id="film" width="76" height="76" patternUnits="userSpaceOnUse">
      <rect x="8" y="11" width="38" height="28" rx="5" fill="none" stroke="#732316" stroke-opacity="0.28"/>
    </pattern>
  </defs>

  <rect width="1168" height="784" fill="url(#bg)"/>
  <rect x="0" width="52" height="784" fill="url(#film)" opacity="0.45"/>
  <rect x="1116" width="52" height="784" fill="url(#film)" opacity="0.55"/>

  <g opacity="0.9">
    <polygon points="0,350 610,405 0,440" fill="url(#cyanBeam)" filter="url(#glow)"/>
    <polygon points="1168,280 680,410 1168,470" fill="url(#amberBeam)" filter="url(#glow)"/>
    <polygon points="350,0 516,420 463,0" fill="url(#cyanBeam)" opacity="0.55"/>
    <polygon points="932,0 720,470 1010,0" fill="url(#amberBeam)" opacity="0.32"/>
  </g>

  <g fill="none" stroke-linecap="round" stroke-linejoin="round">
    <g stroke="#4eeaff" stroke-opacity="0.62" filter="url(#softGlow)">
      <path d="M360 0 444 170 545 231 492 334 514 784"/>
      <path d="M284 0 385 120 552 230 669 122 735 0"/>
      <path d="M386 117 451 186 539 226 603 218"/>
      <path d="M544 228 467 355 309 474 211 784"/>
      <path d="M546 231 625 379 719 492 797 784"/>
      <path d="M0 229 171 389 351 432 512 414"/>
    </g>
    <g stroke="#ff9c31" stroke-opacity="0.68" filter="url(#softGlow)">
      <path d="M969 0 911 168 838 300 773 468 615 784"/>
      <path d="M1168 321 944 374 790 442 696 535"/>
      <path d="M1168 567 930 482 794 451 726 418"/>
      <path d="M945 373 918 485 806 522 751 636"/>
    </g>
    <g stroke="#d9faff" stroke-opacity="0.38">
      <path d="M96 0 276 168 529 229 717 86"/>
      <path d="M228 784 406 519 519 421 646 394 804 459 1033 784"/>
      <path d="M561 0 547 228 610 391 734 418 943 364"/>
      <path d="M702 0 670 133 548 229 405 241 281 172"/>
    </g>
  </g>

  <g opacity="0.85">
    <circle cx="541" cy="230" r="7" fill="#cbfbff" filter="url(#glow)"/>
    <circle cx="776" cy="465" r="6" fill="#ffd1a1" filter="url(#glow)"/>
    <circle cx="430" cy="582" r="8" fill="#29dfff" opacity="0.5" filter="url(#glow)"/>
  </g>

  <text x="584" y="472" text-anchor="middle" font-family="Arial Black, Impact, sans-serif" font-size="190" font-weight="900" letter-spacing="-18" fill="#020306" stroke="#d8ffff" stroke-width="8" paint-order="stroke" filter="url(#softGlow)">KUBRICK</text>
  <text x="584" y="472" text-anchor="middle" font-family="Arial Black, Impact, sans-serif" font-size="190" font-weight="900" letter-spacing="-18" fill="#020306">KUBRICK</text>

  <rect x="1" y="1" width="1166" height="782" fill="none" stroke="#15313a" stroke-opacity="0.25"/>
</svg>
